<svg id="visual" viewBox="0 0 1920 912" width="1920" height="912" xmlns="http://www.w3.org/2000/svg" xmlns:xlink="http://www.w3.org/1999/xlink" version="1.1"><rect x="0" y="0" width="1920" height="912" fill="#ffffff"></rect><path d="M766 0L773.8 9C781.7 18 797.3 36 825.3 53.8C853.3 71.7 893.7 89.3 904.7 107.2C915.7 125 897.3 143 863.7 161C830 179 781 197 775.5 214.8C770 232.7 808 250.3 824.8 268.2C841.7 286 837.3 304 822.3 322C807.3 340 781.7 358 764.3 375.8C747 393.7 738 411.3 771.3 429.2C804.7 447 880.3 465 898.2 482.8C916 500.7 876 518.3 894.2 536.2C912.3 554 988.7 572 1003 590C1017.3 608 969.7 626 965.2 643.8C960.7 661.7 999.3 679.3 1001.2 697.2C1003 715 968 733 924 751C880 769 827 787 843.2 804.8C859.3 822.7 944.7 840.3 973.8 858.2C1003 876 976 894 962.5 903L949 912L0 912L0 903C0 894 0 876 0 858.2C0 840.3 0 822.7 0 804.8C0 787 0 769 0 751C0 733 0 715 0 697.2C0 679.3 0 661.7 0 643.8C0 626 0 608 0 590C0 572 0 554 0 536.2C0 518.3 0 500.7 0 482.8C0 465 0 447 0 429.2C0 411.3 0 393.7 0 375.8C0 358 0 340 0 322C0 304 0 286 0 268.2C0 250.3 0 232.7 0 214.8C0 197 0 179 0 161C0 143 0 125 0 107.2C0 89.3 0 71.7 0 53.8C0 36 0 18 0 9L0 0Z" fill="#e1a1ef"></path><path d="M722 0L705 9C688 18 654 36 668.8 53.8C683.7 71.7 747.3 89.3 784.8 107.2C822.3 125 833.7 143 807.2 161C780.7 179 716.3 197 690.5 214.8C664.7 232.7 677.3 250.3 679 268.2C680.7 286 671.3 304 653.7 322C636 340 610 358 636.3 375.8C662.7 393.7 741.3 411.3 775.3 429.2C809.3 447 798.7 465 767.8 482.8C737 500.7 686 518.3 660.8 536.2C635.7 554 636.3 572 645.8 590C655.3 608 673.7 626 672.7 643.8C671.7 661.7 651.3 679.3 665.7 697.2C680 715 729 733 722.2 751C715.3 769 652.7 787 668.7 804.8C684.7 822.7 779.3 840.3 814 858.2C848.7 876 823.3 894 810.7 903L798 912L0 912L0 903C0 894 0 876 0 858.2C0 840.3 0 822.7 0 804.8C0 787 0 769 0 751C0 733 0 715 0 697.2C0 679.3 0 661.7 0 643.8C0 626 0 608 0 590C0 572 0 554 0 536.2C0 518.3 0 500.7 0 482.8C0 465 0 447 0 429.2C0 411.3 0 393.7 0 375.8C0 358 0 340 0 322C0 304 0 286 0 268.2C0 250.3 0 232.7 0 214.8C0 197 0 179 0 161C0 143 0 125 0 107.2C0 89.3 0 71.7 0 53.8C0 36 0 18 0 9L0 0Z" fill="#b071d7"></path><path d="M469 0L475.5 9C482 18 495 36 524.5 53.8C554 71.7 600 89.3 605 107.2C610 125 574 143 542.5 161C511 179 484 197 494.7 214.8C505.3 232.7 553.7 250.3 550 268.2C546.3 286 490.7 304 473.3 322C456 340 477 358 494.7 375.8C512.3 393.7 526.7 411.3 539.5 429.2C552.3 447 563.7 465 560.5 482.8C557.3 500.7 539.7 518.3 519 536.2C498.3 554 474.7 572 465 590C455.3 608 459.7 626 468 643.8C476.3 661.7 488.7 679.3 494.7 697.2C500.7 715 500.3 733 514.7 751C529 769 558 787 550.8 804.8C543.7 822.7 500.3 840.3 479.5 858.2C458.7 876 460.3 894 461.2 903L462 912L0 912L0 903C0 894 0 876 0 858.2C0 840.3 0 822.7 0 804.8C0 787 0 769 0 751C0 733 0 715 0 697.2C0 679.3 0 661.7 0 643.8C0 626 0 608 0 590C0 572 0 554 0 536.2C0 518.3 0 500.7 0 482.8C0 465 0 447 0 429.2C0 411.3 0 393.7 0 375.8C0 358 0 340 0 322C0 304 0 286 0 268.2C0 250.3 0 232.7 0 214.8C0 197 0 179 0 161C0 143 0 125 0 107.2C0 89.3 0 71.7 0 53.8C0 36 0 18 0 9L0 0Z" fill="#8e56ca"></path><path d="M414 0L418.5 9C423 18 432 36 438 53.8C444 71.7 447 89.3 429.5 107.2C412 125 374 143 349.5 161C325 179 314 197 341.5 214.8C369 232.7 435 250.3 449.8 268.2C464.7 286 428.3 304 395.5 322C362.7 340 333.3 358 338.3 375.8C343.3 393.7 382.7 411.3 411.2 429.2C439.7 447 457.3 465 458.5 482.8C459.7 500.7 444.3 518.3 443.8 536.2C443.3 554 457.7 572 439.8 590C422 608 372 626 372.5 643.8C373 661.7 424 679.3 422.2 697.2C420.3 715 365.7 733 352.8 751C340 769 369 787 364.3 804.8C359.7 822.7 321.3 840.3 307.7 858.2C294 876 305 894 310.5 903L316 912L0 912L0 903C0 894 0 876 0 858.2C0 840.3 0 822.7 0 804.8C0 787 0 769 0 751C0 733 0 715 0 697.2C0 679.3 0 661.7 0 643.8C0 626 0 608 0 590C0 572 0 554 0 536.2C0 518.3 0 500.7 0 482.8C0 465 0 447 0 429.2C0 411.3 0 393.7 0 375.8C0 358 0 340 0 322C0 304 0 286 0 268.2C0 250.3 0 232.7 0 214.8C0 197 0 179 0 161C0 143 0 125 0 107.2C0 89.3 0 71.7 0 53.8C0 36 0 18 0 9L0 0Z" fill="#b071d7"></path><path d="M263 0L242 9C221 18 179 36 187.3 53.8C195.7 71.7 254.3 89.3 263 107.2C271.7 125 230.3 143 209.2 161C188 179 187 197 194.7 214.8C202.3 232.7 218.7 250.3 239.8 268.2C261 286 287 304 274.7 322C262.3 340 211.7 358 193.3 375.8C175 393.7 189 411.3 203.3 429.2C217.7 447 232.3 465 235.8 482.8C239.3 500.7 231.7 518.3 235.5 536.2C239.3 554 254.7 572 246 590C237.3 608 204.7 626 202.2 643.8C199.7 661.7 227.3 679.3 231.5 697.2C235.7 715 216.3 733 215.3 751C214.3 769 231.7 787 222.3 804.8C213 822.7 177 840.3 177.8 858.2C178.7 876 216.3 894 235.2 903L254 912L0 912L0 903C0 894 0 876 0 858.2C0 840.3 0 822.7 0 804.8C0 787 0 769 0 751C0 733 0 715 0 697.2C0 679.3 0 661.7 0 643.8C0 626 0 608 0 590C0 572 0 554 0 536.2C0 518.3 0 500.7 0 482.8C0 465 0 447 0 429.2C0 411.3 0 393.7 0 375.8C0 358 0 340 0 322C0 304 0 286 0 268.2C0 250.3 0 232.7 0 214.8C0 197 0 179 0 161C0 143 0 125 0 107.2C0 89.3 0 71.7 0 53.8C0 36 0 18 0 9L0 0Z" fill="#e1a1ef"></path></svg>